<svg width="48" height="48" viewBox="0 0 48 48" fill="none" xmlns="http://www.w3.org/2000/svg">
  <circle cx="24" cy="24" r="4" stroke="#3cc51f" stroke-width="3"/>
  <path d="M24 6C22.8954 6 22 6.89543 22 8V12C22 13.1046 22.8954 14 24 14C25.1046 14 26 13.1046 26 12V8C26 6.89543 25.1046 6 24 6Z" fill="#3cc51f"/>
  <path d="M24 34C22.8954 34 22 34.8954 22 36V40C22 41.1046 22.8954 42 24 42C25.1046 42 26 41.1046 26 40V36C26 34.8954 25.1046 34 24 34Z" fill="#3cc51f"/>
  <path d="M40 22H36C34.8954 22 34 22.8954 34 24C34 25.1046 34.8954 26 36 26H40C41.1046 26 42 25.1046 42 24C42 22.8954 41.1046 22 40 22Z" fill="#3cc51f"/>
  <path d="M14 24C14 22.8954 13.1046 22 12 22H8C6.89543 22 6 22.8954 6 24C6 25.1046 6.89543 26 8 26H12C13.1046 26 14 25.1046 14 24Z" fill="#3cc51f"/>
</svg>
